<?xml version="1.0" encoding="UTF-8" standalone="no"?>
<!-- Created with Inkscape (http://www.inkscape.org/) -->

<svg
   width="100"
   height="66"
   viewBox="0 0 22.886328 22.89653"
   version="1.1"
   id="svg5"
   xml:space="preserve"
   inkscape:version="1.2 (dc2aedaf03, 2022-05-15)"
   sodipodi:docname="elo2.svg"
   xmlns:inkscape="http://www.inkscape.org/namespaces/inkscape"
   xmlns:sodipodi="http://sodipodi.sourceforge.net/DTD/sodipodi-0.dtd"
   xmlns="http://www.w3.org/2000/svg"
   xmlns:svg="http://www.w3.org/2000/svg"><sodipodi:namedview
     id="namedview7"
     pagecolor="#ffffff"
     bordercolor="#000000"
     borderopacity="0.25"
     inkscape:showpageshadow="2"
     inkscape:pageopacity="0.0"
     inkscape:pagecheckerboard="0"
     inkscape:deskcolor="#d1d1d1"
     inkscape:document-units="mm"
     showgrid="false"
     inkscape:zoom="3.9710672"
     inkscape:cx="279.1441"
     inkscape:cy="404.67711"
     inkscape:window-width="1920"
     inkscape:window-height="986"
     inkscape:window-x="-11"
     inkscape:window-y="-11"
     inkscape:window-maximized="1"
     inkscape:current-layer="layer1" /><defs
     id="defs2"><style
       id="style1356">.a{opacity:0;}.b{fill:#fff;}.c{fill:#ff5f00;}.d{fill:#eb001b;}.e{fill:#f79e1b;}</style></defs><g
     inkscape:label="Camada 1"
     inkscape:groupmode="layer"
     id="layer1"
     transform="translate(-18.097437,-67.439009)"><g
       id="g1442"
       transform="matrix(0.04556095,0,0,0.04556095,13.59427,62.940942)"
       inkscape:export-filename="g1442.png"
       inkscape:export-xdpi="66.589973"
       inkscape:export-ydpi="66.589973"><path
         id="logo-blue-box-small-45-9x45-a"
         class="st0"
         d="M 601.16169,601.04981 H 98.838315 V 98.72644 H 601.16169 Z"
         inkscape:connector-curvature="0"
         style="fill:#ffffff;stroke-width:11.1876"
         inkscape:export-filename="C:\Users\alex\sites\amex-american-express-logo-4.png"
         inkscape:export-xdpi="76.444778"
         inkscape:export-ydpi="76.444778" /><path
         class="st1"
         d="M 601.16169,370.80894 V 98.95019 H 98.838315 V 601.27356 H 601.16169 v -146.5576 c -1.11877,0 0,-83.90702 0,-83.90702"
         id="path5"
         inkscape:connector-curvature="0"
         style="fill:#006fcf;stroke-width:11.1876"
         inkscape:export-filename="C:\Users\alex\sites\amex-american-express-logo-4.png"
         inkscape:export-xdpi="76.444778"
         inkscape:export-ydpi="76.444778" /><path
         class="st0"
         d="m 539.62986,342.83994 h 38.03785 v -88.38207 h -41.39413 v 12.30637 l -7.83132,-12.30637 h -35.80033 v 15.66265 l -6.71256,-15.66265 h -66.00686 c -2.23752,0 -4.47503,1.11876 -6.71255,1.11876 -2.23752,0 -3.35629,1.11876 -5.5938,2.23752 -2.23752,1.11876 -3.35629,1.11876 -5.5938,2.23752 v -5.5938 h -189.0705 l -5.5938,14.54389 -5.5938,-14.54389 h -44.75041 v 15.66265 l -6.71256,-15.66265 h -35.80033 l -15.662645,38.03785 v 50.34422 H 124.5698 l 4.47504,-12.30637 h 8.95008 l 4.47505,12.30637 h 196.9018 v -11.18761 l 7.83132,11.18761 h 54.81926 v -6.71257 c 1.11877,1.11876 3.35629,1.11876 4.47504,2.23752 1.11876,1.11876 3.35628,1.11876 4.47504,2.23752 2.23752,1.11877 4.47504,1.11877 6.71256,1.11877 h 40.27537 l 4.47504,-12.30637 h 8.95008 l 4.47504,12.30637 h 54.81926 v -11.18761 z m 61.53182,111.87602 V 371.9277 H 293.50261 l -7.83133,11.18761 -7.83133,-11.18761 h -89.50081 v 88.38206 h 89.50082 l 7.83132,-11.1876 7.83133,11.1876 h 55.938 v -19.01892 h -2.23751 c 7.83131,0 14.54388,-1.11876 20.13768,-3.35628 v 23.49397 h 40.27538 v -11.18761 l 7.83132,11.18761 h 166.69527 c 6.71257,-2.23753 13.42512,-3.35629 19.01893,-6.71257 z"
         id="path7"
         inkscape:connector-curvature="0"
         style="fill:#ffffff;stroke-width:11.1876"
         inkscape:export-filename="C:\Users\alex\sites\amex-american-express-logo-4.png"
         inkscape:export-xdpi="76.444778"
         inkscape:export-ydpi="76.444778" /><path
         class="st1"
         d="m 582.14275,433.45952 h -30.20652 v 12.30636 H 581.024 c 12.30635,0 20.13769,-7.83132 20.13769,-19.01892 0,-11.18761 -6.71258,-16.78141 -17.90017,-16.78141 H 569.8364 c -3.35629,0 -5.5938,-2.23752 -5.5938,-5.5938 0,-3.35628 2.23752,-5.5938 5.5938,-5.5938 h 25.73147 l 5.59382,-12.30636 h -30.20654 c -12.30637,0 -20.13769,7.83132 -20.13769,17.90016 0,11.1876 6.71257,16.7814 17.90017,16.7814 h 13.42512 c 3.35629,0 5.5938,2.23753 5.5938,5.59381 1.11877,4.47504 -1.11876,6.71256 -5.5938,6.71256 z m -54.81925,0 h -30.20652 v 12.30636 h 29.08776 c 12.30636,0 20.13768,-7.83132 20.13768,-19.01892 0,-11.18761 -6.71256,-16.78141 -17.90016,-16.78141 h -13.42513 c -3.35628,0 -5.5938,-2.23752 -5.5938,-5.5938 0,-3.35628 2.23752,-5.5938 5.5938,-5.5938 h 25.73149 l 5.5938,-12.30636 h -30.20653 c -12.30636,0 -20.13768,7.83132 -20.13768,17.90016 0,11.1876 6.71256,16.7814 17.90016,16.7814 h 13.42513 c 3.35628,0 5.5938,2.23753 5.5938,5.59381 1.11876,4.47504 -2.23752,6.71256 -5.5938,6.71256 z m -39.15661,-35.80033 v -12.30636 h -46.98793 v 59.29429 h 46.98793 v -12.30636 h -33.56281 v -12.30637 h 32.44405 v -12.30636 h -32.44405 v -11.1876 h 33.56281 z m -76.0757,0 c 5.5938,0 7.83132,3.35628 7.83132,6.71256 0,3.35628 -2.23752,6.71256 -7.83132,6.71256 h -16.7814 v -14.54388 z m -16.7814,25.73149 h 6.71257 l 17.90015,21.25644 h 16.78141 l -20.13769,-22.3752 c 10.06885,-2.23753 15.66265,-8.95009 15.66265,-17.90017 0,-11.1876 -7.83133,-19.01892 -20.13768,-19.01892 h -31.32529 v 59.29429 h 13.42512 z m -35.80033,-17.90017 c 0,4.47504 -2.23753,7.83132 -7.83133,7.83132 h -17.90016 v -15.66264 h 16.7814 c 5.59381,0 8.95009,3.35628 8.95009,7.83132 z m -39.15661,-20.13768 v 59.29429 h 13.42512 v -20.13768 h 17.90016 c 12.30638,0 21.25645,-7.83133 21.25645,-20.13769 0,-11.1876 -7.83132,-20.13768 -20.13769,-20.13768 z m -20.13768,59.29429 h 16.7814 l -23.49396,-30.20653 23.49396,-29.08776 h -16.7814 l -14.54389,19.01892 -14.54389,-19.01892 H 254.346 l 23.49396,29.08776 -23.49397,29.08777 h 16.7814 l 14.54389,-19.01892 z m -50.34422,-46.98793 v -12.30636 h -46.98793 v 59.29429 h 46.98793 v -12.30636 h -33.5628 v -12.30637 h 32.44404 v -12.30636 h -32.44405 v -11.1876 h 33.56281 z m 271.85875,-105.16347 23.49396,35.80033 h 16.78142 v -59.29429 h -13.42514 v 39.15661 l -3.35628,-5.5938 -21.25644,-33.56281 h -17.90017 v 59.29429 h 13.42513 v -40.27537 z m -58.17554,-1.11876 4.47504,-12.30636 4.47504,12.30636 5.5938,13.42513 h -20.13768 z m 23.49397,36.91909 h 14.54388 l -25.73149,-59.29429 h -17.90016 l -25.73149,59.29429 h 14.54389 l 5.5938,-12.30636 h 29.08777 z m -62.65058,0 5.5938,-12.30636 h -3.35628 c -10.06884,0 -15.66264,-6.71256 -15.66264,-16.78141 v -1.11876 c 0,-10.06884 5.5938,-16.7814 15.66264,-16.7814 h 14.54389 v -12.30636 h -15.66265 c -17.90016,0 -27.96901,12.30636 -27.96901,29.08776 v 1.11876 c 0,17.90017 10.06885,29.08777 26.85025,29.08777 z m -50.3442,0 h 13.42512 v -58.17553 h -13.42512 z m -29.08778,-46.98793 c 5.5938,0 7.83132,3.35628 7.83132,6.71256 0,3.35628 -2.23751,6.71256 -7.83132,6.71256 h -16.7814 v -14.54388 z m -16.7814,25.73149 h 6.71257 l 17.90015,21.25644 h 16.78141 l -20.13768,-22.3752 c 10.06885,-2.23752 15.66265,-8.95009 15.66265,-17.90017 0,-11.1876 -7.83133,-19.01892 -20.13769,-19.01892 h -31.32529 v 59.29429 h 13.42513 z m -24.61273,-25.73149 v -12.30636 h -46.98792 v 59.29429 h 46.98793 v -12.30636 h -33.56281 v -12.30636 h 32.44404 v -12.30637 h -32.44404 v -11.1876 h 33.56281 z m -101.80718,46.98793 h 12.30636 l 16.7814,-48.10669 v 48.10669 h 13.42513 v -59.29429 h -22.37521 l -13.42512,40.27537 -13.42512,-40.27537 h -22.37521 v 59.29429 h 13.42513 v -48.10669 z m -72.71942,-36.91909 4.47504,-12.30636 4.47504,12.30636 5.59381,13.42513 h -20.13769 z m 23.49397,36.91909 h 14.54388 L 141.35121,269.00176 H 124.5698 L 98.838315,328.29605 H 113.3822 l 5.5938,-12.30636 h 29.08777 z"
         id="path9"
         inkscape:connector-curvature="0"
         style="fill:#006fcf;stroke-width:11.1876"
         inkscape:export-filename="C:\Users\alex\sites\amex-american-express-logo-4.png"
         inkscape:export-xdpi="76.444778"
         inkscape:export-ydpi="76.444778" /></g></g><style
     id="style2">.st0{fill:#fff}.st1{fill:#006fcf}</style></svg>
