<?xml version="1.0" encoding="UTF-8" standalone="no"?>
<!-- Created with Inkscape (http://www.inkscape.org/) -->

<svg
   width="100"
   height="66"
   viewBox="0 0 27.876823 13.886391"
   version="1.1"
   id="svg5"
   xml:space="preserve"
   sodipodi:docname="elo.svg"
   inkscape:version="1.2 (dc2aedaf03, 2022-05-15)"
   xmlns:inkscape="http://www.inkscape.org/namespaces/inkscape"
   xmlns:sodipodi="http://sodipodi.sourceforge.net/DTD/sodipodi-0.dtd"
   xmlns="http://www.w3.org/2000/svg"
   xmlns:svg="http://www.w3.org/2000/svg"><sodipodi:namedview
     id="namedview162"
     pagecolor="#ffffff"
     bordercolor="#000000"
     borderopacity="0.25"
     inkscape:showpageshadow="2"
     inkscape:pageopacity="0.0"
     inkscape:pagecheckerboard="0"
     inkscape:deskcolor="#d1d1d1"
     showgrid="false"
     inkscape:zoom="11.424242"
     inkscape:cx="50.025199"
     inkscape:cy="33"
     inkscape:window-width="1920"
     inkscape:window-height="986"
     inkscape:window-x="-11"
     inkscape:window-y="-11"
     inkscape:window-maximized="1"
     inkscape:current-layer="svg5" /><defs
     id="defs2"><clipPath
       clipPathUnits="userSpaceOnUse"
       id="clipPath737-4"><path
         id="path739-7"
         d="m -407.6289,270.62179 h 595.27999 v -595.28 H -407.6289 Z"
         style="stroke-width:0.999998" /></clipPath><clipPath
       clipPathUnits="userSpaceOnUse"
       id="clipPath767-6"><path
         id="path769-3"
         d="m -425.6719,242.32049 h 595.27999 v -595.28 H -425.6719 Z"
         style="stroke-width:0.999998" /></clipPath><clipPath
       clipPathUnits="userSpaceOnUse"
       id="clipPath749-7"><path
         id="path751-1"
         d="m -345.8945,246.9885 h 595.27999 v -595.28 H -345.8945 Z"
         style="stroke-width:0.999998" /></clipPath><clipPath
       clipPathUnits="userSpaceOnUse"
       id="clipPath761-3"><path
         id="path763-6"
         d="m -333.2559,281.6955 h 595.27999 v -595.28 H -333.2559 Z"
         style="stroke-width:0.999998" /></clipPath><clipPath
       clipPathUnits="userSpaceOnUse"
       id="clipPath731-9"><path
         id="path733-0"
         d="M -366.1504,264.9426 H 229.12959 V -330.33739 H -366.1504 Z"
         style="stroke-width:0.999998" /></clipPath><style
       id="style1356">.a{opacity:0;}.b{fill:#fff;}.c{fill:#ff5f00;}.d{fill:#eb001b;}.e{fill:#f79e1b;}</style></defs><g
     id="layer1"
     transform="matrix(0.97549071,0,0,0.95431225,-65.467037,-97.724746)"><g
       id="g1479"><path
         id="path70-8"
         style="fill:#000000;fill-opacity:1;fill-rule:nonzero;stroke:none"
         d="m 0,0 c -0.004,-0.005 -0.006,-0.007 -0.008,-0.012 l -0.306,0.208 c -0.877,-1.425 -2.243,-2.577 -3.971,-3.324 -3.287,-1.43 -6.332,-1.063 -8.518,0.855 l -0.201,-0.304 -0.004,0.005 -3.732,-5.579 c 0.926,-0.642 1.92,-1.189 2.965,-1.624 4.119,-1.71 8.334,-1.63 12.486,0.175 3.002,1.299 5.359,3.285 6.971,5.801 z M -11.643,13.763 C -15.109,12.272 -16.9,9.018 -16.531,5.2 l 14.697,6.327 c -2.525,2.972 -5.816,3.955 -9.809,2.236 M -21.4,-3.231 c -0.352,0.568 -0.829,1.479 -1.116,2.147 -1.695,3.937 -1.777,8.011 -0.345,11.922 1.574,4.291 4.584,7.574 8.468,9.246 4.889,2.104 10.293,1.687 14.977,-1.09 C 3.557,17.288 5.666,14.653 7.268,10.927 7.473,10.45 7.65,9.938 7.826,9.506 Z"
         transform="matrix(0.35277777,0,0,-0.35277777,75.881713,112.7198)"
         clip-path="url(#clipPath737-4)" /><path
         id="path74-5"
         style="fill:#000000;fill-opacity:1;fill-rule:nonzero;stroke:none"
         d="m 0,0 v -31.018 l 4.822,-1.953 -2.74,-6.392 -5.322,2.212 c -1.196,0.519 -2.008,1.311 -2.625,2.205 -0.586,0.911 -1.028,2.161 -1.028,3.843 V 0 Z"
         transform="matrix(0.35277777,0,0,-0.35277777,82.246883,102.73573)"
         clip-path="url(#clipPath767-6)" /><g
         id="g1010"
         transform="matrix(0.60572151,0,0,0.60572151,41.722588,28.372337)"><path
           id="path58-7"
           style="fill:#fbc707;fill-opacity:1;fill-rule:nonzero;stroke:none"
           d="m 0,0 c 1.557,0.521 3.221,0.801 4.955,0.801 7.553,0 13.859,-5.366 15.305,-12.501 l 10.709,2.187 C 28.512,2.605 17.799,11.73 4.955,11.73 c -2.947,0 -5.775,-0.479 -8.42,-1.364 z"
           transform="matrix(0.35277777,0,0,-0.35277777,77.591314,131.02333)"
           clip-path="url(#clipPath749-7)" /><path
           id="path62-7"
           style="fill:#38a7e4;fill-opacity:1;fill-rule:nonzero;stroke:none"
           d="m 0,0 7.244,8.188 c -3.234,2.865 -5.273,7.044 -5.273,11.7 0,4.654 2.037,8.831 5.267,11.693 L -0.006,39.77 C -5.498,34.906 -8.961,27.801 -8.961,19.888 -8.961,11.971 -5.494,4.864 0,0"
           transform="matrix(0.35277777,0,0,-0.35277777,73.132697,143.26719)"
           clip-path="url(#clipPath761-3)" /><path
           id="path66-8"
           style="fill:#ef3120;fill-opacity:1;fill-rule:nonzero;stroke:none"
           d="m 0,0 c -1.449,-7.127 -7.75,-12.485 -15.301,-12.485 -1.736,0 -3.404,0.28 -4.959,0.804 l -3.47,-10.368 c 2.646,-0.886 5.48,-1.362 8.429,-1.362 12.832,0 23.543,9.106 26.01,21.218 z"
           transform="matrix(0.35277777,0,0,-0.35277777,84.737146,137.35714)"
           clip-path="url(#clipPath731-9)" /></g></g></g><style
     id="style2">.st0{fill:#fff}.st1{fill:#006fcf}</style></svg>
