<?xml version="1.0" encoding="UTF-8" standalone="no"?>
<!-- Created with Inkscape (http://www.inkscape.org/) -->

<svg
   width="100"
   height="66"
   viewBox="0 0 34.763611 22.992287"
   version="1.1"
   id="svg5"
   xml:space="preserve"
   inkscape:version="1.2 (dc2aedaf03, 2022-05-15)"
   sodipodi:docname="elo2.svg"
   xmlns:inkscape="http://www.inkscape.org/namespaces/inkscape"
   xmlns:sodipodi="http://sodipodi.sourceforge.net/DTD/sodipodi-0.dtd"
   xmlns="http://www.w3.org/2000/svg"
   xmlns:svg="http://www.w3.org/2000/svg"><sodipodi:namedview
     id="namedview7"
     pagecolor="#ffffff"
     bordercolor="#000000"
     borderopacity="0.25"
     inkscape:showpageshadow="2"
     inkscape:pageopacity="0.0"
     inkscape:pagecheckerboard="0"
     inkscape:deskcolor="#d1d1d1"
     inkscape:document-units="mm"
     showgrid="false"
     inkscape:zoom="3.9710672"
     inkscape:cx="279.1441"
     inkscape:cy="404.67711"
     inkscape:window-width="1920"
     inkscape:window-height="986"
     inkscape:window-x="-11"
     inkscape:window-y="-11"
     inkscape:window-maximized="1"
     inkscape:current-layer="layer1" /><defs
     id="defs2"><style
       id="style1356">.a{opacity:0;}.b{fill:#fff;}.c{fill:#ff5f00;}.d{fill:#eb001b;}.e{fill:#f79e1b;}</style></defs><g
     inkscape:label="Camada 1"
     inkscape:groupmode="layer"
     id="layer1"
     transform="translate(-66.095399,-71.941595)"><g
       id="g1385"
       transform="matrix(0.26458333,0,0,0.26458333,66.095401,71.941593)"
       inkscape:export-filename="g1385.png"
       inkscape:export-xdpi="73.064911"
       inkscape:export-ydpi="73.064911"><g
         class="a"
         id="g1364"><rect
           class="b"
           width="131.39"
           height="86.900002"
           id="rect1362"
           x="0"
           y="0" /></g><rect
         class="c"
         x="48.369999"
         y="15.14"
         width="34.66"
         height="56.610001"
         id="rect1366" /><path
         class="d"
         d="m 51.94,43.45 a 35.94,35.94 0 0 1 13.75,-28.3 36,36 0 1 0 0,56.61 35.94,35.94 0 0 1 -13.75,-28.31 z"
         id="path1368" /><path
         class="e"
         d="M 120.5,65.76 V 64.6 h 0.5 v -0.24 h -1.19 v 0.24 h 0.47 v 1.16 z m 2.31,0 v -1.4 h -0.36 l -0.42,1 -0.42,-1 h -0.36 v 1.4 h 0.26 V 64.7 l 0.39,0.91 h 0.27 l 0.39,-0.91 v 1.06 z"
         id="path1370" /><path
         class="e"
         d="m 123.94,43.45 a 36,36 0 0 1 -58.25,28.3 36,36 0 0 0 0,-56.61 36,36 0 0 1 58.25,28.3 z"
         id="path1372" /></g></g><style
     id="style2">.st0{fill:#fff}.st1{fill:#006fcf}</style></svg>
