<?xml version="1.0" encoding="UTF-8" standalone="no"?>
<!-- Created with Inkscape (http://www.inkscape.org/) -->

<svg
   width="100"
   height="66"
   viewBox="0 0 42.079128 13.65155"
   version="1.1"
   id="svg5"
   xml:space="preserve"
   inkscape:version="1.2 (dc2aedaf03, 2022-05-15)"
   sodipodi:docname="elo2.svg"
   xmlns:inkscape="http://www.inkscape.org/namespaces/inkscape"
   xmlns:sodipodi="http://sodipodi.sourceforge.net/DTD/sodipodi-0.dtd"
   xmlns="http://www.w3.org/2000/svg"
   xmlns:svg="http://www.w3.org/2000/svg"><sodipodi:namedview
     id="namedview7"
     pagecolor="#ffffff"
     bordercolor="#000000"
     borderopacity="0.25"
     inkscape:showpageshadow="2"
     inkscape:pageopacity="0.0"
     inkscape:pagecheckerboard="0"
     inkscape:deskcolor="#d1d1d1"
     inkscape:document-units="mm"
     showgrid="false"
     inkscape:zoom="3.9710672"
     inkscape:cx="279.1441"
     inkscape:cy="404.67711"
     inkscape:window-width="1920"
     inkscape:window-height="986"
     inkscape:window-x="-11"
     inkscape:window-y="-11"
     inkscape:window-maximized="1"
     inkscape:current-layer="layer1" /><defs
     id="defs2"><style
       id="style1356">.a{opacity:0;}.b{fill:#fff;}.c{fill:#ff5f00;}.d{fill:#eb001b;}.e{fill:#f79e1b;}</style></defs><g
     inkscape:label="Camada 1"
     inkscape:groupmode="layer"
     id="layer1"
     transform="translate(-5.6263644,-102.09935)"><g
       id="g12"
       transform="matrix(0.03527778,0,0,-0.03527778,1.665869,133.92502)"
       inkscape:export-filename="g12.png"
       inkscape:export-xdpi="60.362473"
       inkscape:export-ydpi="60.362473"><path
         d="M 629.348,521.605 H 532.02 l 60.832,373.848 h 97.336 l -60.84,-373.848"
         style="fill:#1c63b7;fill-opacity:1;fill-rule:nonzero;stroke:none"
         id="path14" /><path
         d="m 450.137,895.453 -92.793,-257.129 -10.977,55.371 0.012,-0.019 -32.758,168.105 c 0,0 -3.953,33.672 -46.172,33.672 H 114.063 l -1.797,-6.324 c 0,0 46.922,-9.758 101.804,-42.746 L 298.633,521.605 H 400.039 L 554.895,895.453 H 450.137"
         style="fill:#1c63b7;fill-opacity:1;fill-rule:nonzero;stroke:none"
         id="path16" /><path
         d="m 1108.59,653.852 51.15,139.906 28.77,-139.906 z m 107.1,-132.247 h 89.37 l -77.92,373.848 h -78.25 c -36.14,0 -44.93,-27.859 -44.93,-27.859 L 958.809,521.605 h 101.441 l 20.3,55.528 h 123.73 l 11.41,-55.528"
         style="fill:#1c63b7;fill-opacity:1;fill-rule:nonzero;stroke:none"
         id="path18" /><path
         d="m 966.418,805.551 13.887,80.293 c 0,0 -42.864,16.301 -87.539,16.301 -48.301,0 -163,-21.125 -163,-123.762 0,-96.59 134.621,-97.793 134.621,-148.504 0,-50.715 -120.742,-41.652 -160.586,-9.66 l -14.485,-83.922 c 0,0 43.457,-21.125 109.872,-21.125 66.41,0 166.625,34.402 166.625,127.988 0,97.195 -135.833,106.25 -135.833,148.504 0,42.266 94.786,36.84 136.438,13.887"
         style="fill:#1c63b7;fill-opacity:1;fill-rule:nonzero;stroke:none"
         id="path20" /><path
         d="m 346.379,693.676 -32.758,168.105 c 0,0 -3.953,33.672 -46.172,33.672 H 114.063 l -1.797,-6.324 c 0,0 73.73,-15.285 144.464,-72.531 67.594,-54.715 89.649,-122.922 89.649,-122.922"
         style="fill:#f89c22;fill-opacity:1;fill-rule:nonzero;stroke:none"
         id="path22" /></g></g><style
     id="style2">.st0{fill:#fff}.st1{fill:#006fcf}</style></svg>
